<svg xmlns="http://www.w3.org/2000/svg" width="260" height="230" viewBox="-20 -20 260 230">
  <g fill="none" stroke="#353411" stroke-width="1" stroke-linecap="round" stroke-linejoin="round">
    <path d="M -20 -20 C 40 10, 30 70, 90 90 S 190 120, 230 190" stroke-width="1" fill="none" /><path d="M 20.6 -14.1 C 70.0 -15.8 99.7 14.7 97.8 16.0 C 99.7 14.7 101.5 57.4 84.3 76.8 C 60.1 86.4 20.6 70.1 22.5 68.8 C 20.6 70.1 2.2 31.7 20.6 -14.1 Z" /><path d="M 20.6 -14.1 L 82.5 74.3 M 31.7 1.8 L 86.3 9.6 M 31.7 1.8 L 20.4 55.7 M 46.6 23.0 L 91.5 30.5 M 46.6 23.0 L 38.3 67.8 M 60.2 42.5 L 96.3 49.7 M 60.2 42.5 L 54.7 78.9" stroke-width="0.6" /><circle cx="91.2" cy="95.0" r="6.3" /><circle cx="103.1" cy="95.0" r="6.3" /><circle cx="115.0" cy="95.0" r="6.3" /><circle cx="126.9" cy="95.0" r="6.3" /><circle cx="138.8" cy="95.0" r="6.3" /><circle cx="98.6" cy="105.6" r="5.8" /><circle cx="109.5" cy="105.6" r="5.8" /><circle cx="120.5" cy="105.6" r="5.8" /><circle cx="131.4" cy="105.6" r="5.8" /><circle cx="105.0" cy="114.4" r="5.3" /><circle cx="115.0" cy="114.4" r="5.3" /><circle cx="125.0" cy="114.4" r="5.3" /><circle cx="110.5" cy="121.4" r="4.8" /><circle cx="119.5" cy="121.4" r="4.8" /><circle cx="115.0" cy="126.4" r="4.3" /><line x1="115" y1="79" x2="112" y2="55" stroke-width="1" /><path d="M 212.0 117.8 C 221.9 150.8 206.7 176.4 205.5 175.4 C 206.7 176.4 178.2 185.4 162.1 177.3 C 151.3 162.8 155.2 133.2 156.4 134.3 C 155.2 133.2 177.8 113.8 212.0 117.8 Z" /><path d="M 212.0 117.8 L 163.4 175.7 M 203.3 128.3 L 207.7 166.4 M 203.3 128.3 L 164.9 130.5 M 191.6 142.1 L 194.5 173.8 M 191.6 142.1 L 159.9 144.7 M 180.9 154.9 L 182.4 180.5 M 180.9 154.9 L 155.4 157.8" stroke-width="0.55" /><path d="M 230.3 205.4 L 230.3 205.9 L 230.2 206.5 L 230.0 207.1 L 229.6 207.6 L 229.1 208.0 L 228.5 208.4 L 227.8 208.6 L 227.0 208.6 L 226.2 208.5 L 225.4 208.2 L 224.6 207.6 L 224.0 207.0 L 223.5 206.1 L 223.2 205.2 L 223.1 204.1 L 223.2 203.1 L 223.6 202.0 L 224.2 201.0 L 225.0 200.2 L 226.0 199.5 L 227.2 199.0 L 228.4 198.8 L 229.8 198.8 L 231.1 199.2 L 232.4 199.8 L 233.5 200.7 L 234.4 201.9 L 235.1 203.2 L 235.5 204.7 L 235.6 206.3 L 235.3 207.9 L 234.7 209.5 L 233.7 210.9 L 232.4 212.1 L 230.9 213.0 L 229.2 213.7 L 227.4 213.9 L 225.5 213.7 L 223.6 213.2 L 221.9 212.2 L 220.4 210.9 L 219.2 209.3 L 218.3 207.4 L 217.8 205.4 L 217.8 203.2 L 218.3 201.1 L 219.1 199.0 L 220.5 197.2 L 222.1 195.6 L 224.2 194.5 L 226.4 193.7 L 228.8 193.4 L 231.2 193.7 L 233.6 194.5 L 235.8 195.7 L 237.7 197.4 L 239.2 199.5 L 240.3 201.9 L 240.8 204.6" stroke-width="0.8" /><path d="M 0.7 8.0 C 15.7 0.0 29.0 5.0 28.6 5.6 C 29.0 5.0 35.4 17.9 32.7 26.5 C 26.6 33.1 12.2 34.0 12.6 33.4 C 12.2 34.0 1.3 25.0 0.7 8.0 Z" stroke-width="0.8" />
  </g>
</svg>