<svg xmlns="http://www.w3.org/2000/svg" width="480" height="480" viewBox="0 0 480 480">
  <g fill="none" stroke="#fffdeb" stroke-width="1" stroke-linecap="round" stroke-linejoin="round">
    <path d="M 86.2 53.3 C 130.2 63.6 149.3 97.7 147.3 98.4 C 149.3 97.7 140.8 135.9 121.0 148.9 C 97.4 151.7 66.4 127.8 68.4 127.1 C 66.4 127.8 59.1 89.5 86.2 53.3 Z" /><path d="M 86.2 53.3 L 120.0 146.3 M 91.3 67.3 L 138.6 87.5 M 91.3 67.3 L 68.0 113.2 M 99.7 90.5 L 138.3 108.1 M 99.7 90.5 L 81.5 128.8 M 107.2 111.0 L 138.0 126.2 M 107.2 111.0 L 93.3 142.5" stroke-width="0.6" /><line x1="98" y1="150" x2="82" y2="185" stroke-width="1" /><path d="M 64.5 192.9 L 64.5 193.5 L 64.2 194.1 L 63.9 194.6 L 63.4 195.1 L 62.8 195.5 L 62.1 195.8 L 61.4 195.9 L 60.6 195.8 L 59.7 195.6 L 59.0 195.3 L 58.2 194.7 L 57.6 194.0 L 57.1 193.1 L 56.8 192.1 L 56.7 191.1 L 56.9 190.0 L 57.2 189.0 L 57.8 188.0 L 58.5 187.1 L 59.5 186.3 L 60.6 185.8 L 61.9 185.4 L 63.2 185.4 L 64.5 185.6 L 65.8 186.0 L 67.1 186.8 L 68.1 187.8 L 69.0 189.0 L 69.6 190.4 L 70.0 191.9 L 70.0 193.5 L 69.7 195.1 L 69.1 196.7 L 68.2 198.1 L 66.9 199.3 L 65.5 200.3 L 63.8 201.0 L 62.0 201.4 L 60.1 201.4 L 58.3 201.0 L 56.5 200.2 L 54.8 199.1 L 53.4 197.7 L 52.3 195.9 L 51.6 194.0 L 51.2 191.9 L 51.3 189.8 L 51.8 187.6 L 52.7 185.6 L 54.0 183.8 L 55.7 182.2 L 57.6 181.0 L 59.8 180.2 L 62.2 179.8 L 64.6 179.9 L 67.0 180.5 L 69.3 181.6 L 71.3 183.1 L 73.0 185.0 L 74.4 187.2 L 75.2 189.7 L 75.6 192.4 L 75.4 195.1 L 74.7 197.7 L 73.5 200.2 L 71.8 202.4 L 69.7 204.3 L 67.2 205.7 L 64.4 206.6" stroke-width="0.9" /><circle cx="273.4" cy="85.0" r="7.0" /><circle cx="286.7" cy="85.0" r="7.0" /><circle cx="300.0" cy="85.0" r="7.0" /><circle cx="313.3" cy="85.0" r="7.0" /><circle cx="326.6" cy="85.0" r="7.0" /><circle cx="281.6" cy="96.9" r="6.4" /><circle cx="293.9" cy="96.9" r="6.4" /><circle cx="306.1" cy="96.9" r="6.4" /><circle cx="318.4" cy="96.9" r="6.4" /><circle cx="288.8" cy="106.7" r="5.9" /><circle cx="300.0" cy="106.7" r="5.9" /><circle cx="311.2" cy="106.7" r="5.9" /><circle cx="294.9" cy="114.5" r="5.3" /><circle cx="305.1" cy="114.5" r="5.3" /><circle cx="300.0" cy="120.1" r="4.8" /><line x1="300" y1="68" x2="300" y2="35" stroke-width="1" /><line x1="300" y1="35" x2="278" y2="12" stroke-width="1" /><path d="M 397.6 397.0 C 345.1 384.5 322.3 343.7 324.6 342.8 C 322.3 343.7 332.2 297.9 355.8 282.3 C 383.9 279.1 420.9 307.7 418.6 308.6 C 420.9 307.7 429.7 353.7 397.6 397.0 Z" /><path d="M 397.6 397.0 L 356.9 285.4 M 391.5 380.3 L 335.0 355.9 M 391.5 380.3 L 419.1 325.3 M 381.3 352.4 L 335.3 331.2 M 381.3 352.4 L 403.0 306.6 M 372.4 327.8 L 335.6 309.5 M 372.4 327.8 L 388.8 290.1" stroke-width="0.6" /><line x1="380" y1="272" x2="398" y2="242" stroke-width="1" /><path d="M 414.5 226.6 L 414.9 227.0 L 415.2 227.5 L 415.4 228.1 L 415.6 228.7 L 415.6 229.4 L 415.4 230.1 L 415.1 230.8 L 414.7 231.5 L 414.1 232.1 L 413.4 232.5 L 412.6 232.9 L 411.7 233.1 L 410.7 233.2 L 409.8 233.0 L 408.8 232.7 L 407.9 232.2 L 407.0 231.5 L 406.3 230.6 L 405.8 229.6 L 405.4 228.5 L 405.2 227.3 L 405.3 226.0 L 405.6 224.8 L 406.1 223.6 L 406.9 222.5 L 407.8 221.5 L 409.0 220.7 L 410.3 220.0 L 411.8 219.7 L 413.3 219.6 L 414.8 219.8 L 416.3 220.2 L 417.8 221.0 L 419.1 222.0 L 420.2 223.3 L 421.1 224.8 L 421.7 226.4 L 422.0 228.1 L 422.0 230.0 L 421.7 231.8 L 421.0 233.6 L 420.0 235.2 L 418.7 236.7 L 417.1 237.9 L 415.3 238.8 L 413.4 239.4 L 411.3 239.7 L 409.2 239.5 L 407.1 239.0 L 405.1 238.1 L 403.3 236.9 L 401.7 235.3 L 400.4 233.4 L 399.4 231.3 L 398.8 229.0 L 398.7 226.6 L 399.0 224.2 L 399.7 221.8 L 400.8 219.6 L 402.4 217.6 L 404.3 215.9 L 406.5 214.6 L 408.9 213.6 L 411.6 213.1 L 414.2 213.1 L 416.9 213.6 L 419.5 214.5 L 421.9 215.9 L 424.1 217.8" stroke-width="0.9" /><circle cx="75.0" cy="345.0" r="7.4" /><circle cx="89.0" cy="345.0" r="7.4" /><circle cx="103.0" cy="345.0" r="7.4" /><circle cx="117.0" cy="345.0" r="7.4" /><circle cx="131.0" cy="345.0" r="7.4" /><circle cx="145.0" cy="345.0" r="7.4" /><circle cx="84.2" cy="357.5" r="6.8" /><circle cx="97.1" cy="357.5" r="6.8" /><circle cx="110.0" cy="357.5" r="6.8" /><circle cx="122.9" cy="357.5" r="6.8" /><circle cx="135.8" cy="357.5" r="6.8" /><circle cx="92.4" cy="367.8" r="6.2" /><circle cx="104.1" cy="367.8" r="6.2" /><circle cx="115.9" cy="367.8" r="6.2" /><circle cx="127.6" cy="367.8" r="6.2" /><circle cx="99.4" cy="376.0" r="5.6" /><circle cx="110.0" cy="376.0" r="5.6" /><circle cx="120.6" cy="376.0" r="5.6" /><circle cx="105.2" cy="382.0" r="5.0" /><circle cx="114.8" cy="382.0" r="5.0" /><circle cx="110.0" cy="385.8" r="4.4" /><line x1="110" y1="322" x2="110" y2="285" stroke-width="1" /><line x1="110" y1="285" x2="132" y2="262" stroke-width="1" /><path d="M 460.2 34.7 C 454.3 58.0 435.7 68.2 435.3 67.2 C 435.7 68.2 415.0 64.1 408.0 53.7 C 406.7 41.3 419.9 24.8 420.2 25.9 C 419.9 24.8 440.7 20.8 460.2 34.7 Z" /><path d="M -10 250 C 60 225, 90 275, 150 258 S 260 205, 330 250 S 430 295, 490 258" stroke-width="1" fill="none" /><path d="M -10 25 C 40 8, 65 55, 120 48 S 210 15, 270 55" stroke-width="1" fill="none" />
  </g>
</svg>